<?xml version="1.0" encoding="utf-8"?>
<!-- Generator: Adobe Illustrator 18.1.1, SVG Export Plug-In . SVG Version: 6.00 Build 0)  -->
<svg version="1.1" id="Layer_1" xmlns="http://www.w3.org/2000/svg" xmlns:xlink="http://www.w3.org/1999/xlink" x="0px" y="0px"
	 width="50px" height="49.7px" viewBox="0 0 50 49.7" enable-background="new 0 0 50 49.7" xml:space="preserve">
<g>
	<path fill="#ffffff" d="M25.1,13.2c2.6,0,5,0.7,6.9,2.3h9.3h8.6v-3.3C49.9,5.3,44.3,0,37.7,0H12.2C5.6-0.3,0,5.3,0,11.9v3.3h18.2
		C20.2,14.2,22.5,13.2,25.1,13.2z M35,7.3C35,6.6,35.7,6,36.4,6h4.3C41.3,6,42,6.6,42,7.3v4.3c0,0.7-0.7,1.3-1.3,1.3h-4.3
		c-0.7,0-1.3-0.7-1.3-1.3V7.3z"/>
	<path fill="#ffffff" d="M37.2,25.2c0,6.7-5.4,11.7-11.7,11.7s-12.1-5.4-12.1-11.7c0-1.7,0.3-3.4,1-5H0v17.1
		C0,44,5.7,49.7,12.4,49.7h25.1c7,0,12.4-5.7,12.4-12.4V20.2H35.9C36.9,21.5,37.2,23.2,37.2,25.2z"/>
</g>
</svg>
