<?xml version="1.0" encoding="utf-8"?>
<!-- Generator: Adobe Illustrator 18.1.1, SVG Export Plug-In . SVG Version: 6.00 Build 0)  -->
<svg version="1.1" id="Layer_1" xmlns="http://www.w3.org/2000/svg" xmlns:xlink="http://www.w3.org/1999/xlink" x="0px" y="0px"
	 width="49px" height="42px" viewBox="0 0 49 42" enable-background="new 0 0 49 42" xml:space="preserve">
<g>
	<g>
		<path fill="#FFFFFF" d="M21,2c1.3,1.1,4,3.3,4,7.4c0,4.1-2.4,6-4.7,7.8c-0.7,0.7-1.6,1.5-1.6,2.7c0,1.2,0.8,1.9,1.5,2.4l2,1.5
			c2.5,2,4.7,3.9,4.7,7.7c0,5.2-5.1,10.4-14.8,10.4C3.9,42,0,38.2,0,34.1c0-2,1-4.8,4.3-6.7c3.5-2.1,8.2-2.4,10.7-2.5
			c-0.8-1-1.7-2-1.7-3.8c0-0.9,0.3-1.5,0.6-2.2c-0.6,0.1-1.2,0.1-1.8,0.1c-6,0-9.3-4.4-9.3-8.7C2.8,7.9,4,5.1,6.4,3
			c3.2-2.6,7-3,10.1-3H28l-3.6,2H21z M17,26.5c-0.4-0.1-0.7-0.1-1.3-0.1c-0.5,0-3.5,0.1-5.9,0.9c-1.2,0.4-4.8,1.8-4.8,5.7
			s3.9,6.7,9.9,6.7c5.4,0,8.3-2.5,8.3-6C23.1,31,21.2,29.5,17,26.5 M18.6,16c1.3-1.3,1.4-3,1.4-4c0-4-2.4-10.1-7.1-10.1
			c-1.5,0-3,0.7-3.9,1.8C8,4.8,7.8,6.3,7.8,7.7c0,3.7,2.2,9.8,7,9.8C16.2,17.6,17.7,16.9,18.6,16"/>
		<polygon fill="#FFFFFF" points="49,8.6 40.5,8.6 40.5,0 38.5,0 38.5,8.6 29.8,8.6 29.8,10.5 38.5,10.5 38.5,19.4 40.5,19.4 
			40.5,10.5 49,10.5 		"/>
	</g>
</g>
</svg>
