<?xml version="1.0" encoding="utf-8"?>
<!-- Generator: Adobe Illustrator 18.1.1, SVG Export Plug-In . SVG Version: 6.00 Build 0)  -->
<svg version="1.1" id="Layer_1" xmlns="http://www.w3.org/2000/svg" xmlns:xlink="http://www.w3.org/1999/xlink" x="0px" y="0px"
	 width="19.4px" height="41.5px" viewBox="0 0 19.4 41.5" enable-background="new 0 0 19.4 41.5" xml:space="preserve">
<g>
	<g id="_x23_020201ff_1_">
		<path fill="#FFFFFF" d="M6.4,2.1C8,0.6,10.3,0.1,12.5,0c2.3,0,4.6,0,6.9,0c0,2.4,0,4.9,0,7.3c-1.5,0-3,0-4.5,0
			C14,7.2,13,7.9,12.8,8.9c0,1.6,0,3.2,0,4.9c2.2,0,4.4,0,6.5,0c-0.2,2.3-0.5,4.7-0.8,7c-1.9,0-3.9,0-5.8,0c0,6.9,0,13.8,0,20.8
			c-2.9,0-5.7,0-8.6,0c-0.1-6.9,0-13.9,0-20.8c-1.4,0-2.8,0-4.2,0c0-2.3,0-4.7,0-7c1.4,0,2.8,0,4.2,0c0-2.3,0-4.5,0-6.8
			C4.4,5.2,5.1,3.4,6.4,2.1z"/>
	</g>
</g>
</svg>
