<?xml version="1.0" encoding="utf-8"?>
<!-- Generator: Adobe Illustrator 18.1.1, SVG Export Plug-In . SVG Version: 6.00 Build 0)  -->
<svg version="1.1" id="Layer_1" xmlns="http://www.w3.org/2000/svg" xmlns:xlink="http://www.w3.org/1999/xlink" x="0px" y="0px"
	 width="42px" height="40.1px" viewBox="0 0 42 40.1" enable-background="new 0 0 42 40.1" xml:space="preserve">
<g>
	<path fill="#FFFFFF" d="M0,4.7c0-1.4,0.5-2.5,1.4-3.3S3.6,0,5.1,0c1.5,0,2.7,0.4,3.6,1.3c0.9,0.9,1.4,2.1,1.4,3.5
		c0,1.3-0.5,2.4-1.4,3.2C7.8,8.9,6.6,9.4,5,9.4h0C3.5,9.4,2.3,8.9,1.4,8S0,6,0,4.7z M0.5,40.1V13.1h9v27.1H0.5z M14.5,40.1h9V25
		c0-0.9,0.1-1.7,0.3-2.2c0.4-0.9,1-1.7,1.7-2.3c0.8-0.6,1.7-1,2.9-1c3,0,4.5,2,4.5,6.1v14.5h9V24.6c0-4-0.9-7-2.8-9.1
		s-4.4-3.1-7.5-3.1c-3.5,0-6.2,1.5-8.1,4.5V17h0l0-0.1v-3.9h-9c0.1,0.9,0.1,3.6,0.1,8.1S14.6,32,14.5,40.1z"/>
</g>
</svg>
