<?xml version="1.0" encoding="utf-8"?>
<!-- Generator: Adobe Illustrator 18.1.1, SVG Export Plug-In . SVG Version: 6.00 Build 0)  -->
<svg version="1.1" id="Layer_1" xmlns="http://www.w3.org/2000/svg" xmlns:xlink="http://www.w3.org/1999/xlink" x="0px" y="0px"
	 width="43.5px" height="35.3px" viewBox="0 0 43.5 35.3" enable-background="new 0 0 43.5 35.3" xml:space="preserve">
<g>
	<path id="twitter-icon_1_" fill="#FFFFFF" d="M43.5,4.1c-1.5,0.8-3.3,1.3-5.1,1.3c1.8-1,3.3-2.8,3.8-4.9c-1.8,1-3.6,1.8-5.6,2
		C35.1,1,32.8,0,30.2,0c-5.9,0-10,5.4-8.7,11C14.1,10.5,7.4,6.9,3.1,1.5c-2.3,4.1-1.3,9.5,2.8,12c-1.5,0-2.8-0.5-4.1-1
		c0,4.1,2.8,7.9,7.2,9c-1.3,0.3-2.6,0.3-4.1,0c1,3.6,4.4,6.1,8.4,6.1C9.5,30.7,4.9,32,0,31.2c3.8,2.6,8.7,4.1,13.6,4.1
		c16.6,0,25.9-14.1,25.3-26.6C40.7,7.4,42.2,5.9,43.5,4.1z"/>
</g>
</svg>
