<?xml version="1.0" encoding="utf-8"?>
<!-- Generator: Adobe Illustrator 18.1.1, SVG Export Plug-In . SVG Version: 6.00 Build 0)  -->
<svg version="1.1" id="Layer_1" xmlns="http://www.w3.org/2000/svg" xmlns:xlink="http://www.w3.org/1999/xlink" x="0px" y="0px"
	 width="243px" height="35px" viewBox="0 0 242.7 35" enable-background="new 0 0 242.7 35" xml:space="preserve">
<g>
	<path fill="none" stroke="#FFFFFF" stroke-width="3" stroke-miterlimit="10" d="M224.8,6.7l8.4,8.4c0.3,0.3,0.3,0.8,0,1.1L220,29.4
		c-0.3,0.3-0.8,0.3-1.1,0l-13.2-13.2c-0.3-0.3-0.3-0.8,0-1.1l13.2-13.2c0.3-0.3,0.8-0.3,1.1,0l1.8,1.8"/>
	<path fill="none" stroke="#FFFFFF" stroke-width="3" stroke-miterlimit="10" d="M221.7,24.6l-8.4-8.4c-0.3-0.3-0.3-0.8,0-1.1
		l13.2-13.2c0.3-0.3,0.8-0.3,1.1,0l13.2,13.2c0.3,0.3,0.3,0.8,0,1.1l-13.2,13.2c-0.3,0.3-0.8,0.3-1.1,0l-1.7-1.7"/>
	<g>
		<path fill="#FFFFFF" d="M0.2,7.7V3.9h3.5v3.9H0.2z M0.2,27.2V10.5h3.5v16.7H0.2z"/>
		<path fill="#FFFFFF" d="M24.3,7.7h-7.6v19.6h-3.6V7.7H5.6V4.5h18.7V7.7z"/>
		<path fill="#FFFFFF" d="M33.9,27.6c-1.3,0-2.5-0.2-3.6-0.7c-1.1-0.5-2-1.1-2.7-1.9c-0.8-0.8-1.3-1.7-1.8-2.8
			c-0.4-1-0.6-2.2-0.6-3.3c0-1.2,0.2-2.3,0.6-3.3s1-2,1.8-2.8c0.8-0.8,1.7-1.4,2.7-1.9c1.1-0.5,2.3-0.7,3.6-0.7
			c1.3,0,2.5,0.2,3.5,0.7c1.1,0.5,2,1.1,2.7,1.9c0.7,0.8,1.3,1.7,1.7,2.7c0.4,1,0.6,2.1,0.6,3.2c0,0.3,0,0.5,0,0.7
			c0,0.2,0,0.4-0.1,0.6H29c0.1,0.7,0.2,1.4,0.5,2c0.3,0.6,0.7,1.1,1.1,1.6c0.5,0.4,1,0.8,1.6,1c0.6,0.2,1.2,0.4,1.8,0.4
			c0.5,0,0.9-0.1,1.4-0.2c0.5-0.1,0.9-0.3,1.3-0.5c0.4-0.2,0.7-0.5,1-0.8c0.3-0.3,0.5-0.7,0.7-1.1l3,0.9c-0.6,1.3-1.5,2.3-2.9,3.1
			S35.7,27.6,33.9,27.6z M39,17.6c-0.1-0.7-0.2-1.4-0.5-2c-0.3-0.6-0.7-1.1-1.1-1.5c-0.4-0.4-1-0.7-1.6-1c-0.6-0.2-1.2-0.4-1.9-0.4
			c-0.7,0-1.3,0.1-1.9,0.4c-0.6,0.2-1.1,0.6-1.6,1c-0.4,0.4-0.8,0.9-1.1,1.5c-0.3,0.6-0.4,1.2-0.5,2H39z"/>
		<path fill="#FFFFFF" d="M52.3,27.6c-1.3,0-2.5-0.2-3.6-0.7c-1.1-0.5-2-1.1-2.7-1.9c-0.8-0.8-1.3-1.7-1.8-2.8
			c-0.4-1-0.6-2.2-0.6-3.3c0-1.2,0.2-2.3,0.6-3.3s1-2,1.8-2.8c0.8-0.8,1.7-1.4,2.7-1.9c1.1-0.5,2.3-0.7,3.6-0.7
			c1.3,0,2.5,0.2,3.5,0.7c1.1,0.5,2,1.1,2.7,1.9c0.7,0.8,1.3,1.7,1.7,2.7c0.4,1,0.6,2.1,0.6,3.2c0,0.3,0,0.5,0,0.7
			c0,0.2,0,0.4-0.1,0.6H47.3c0.1,0.7,0.2,1.4,0.5,2c0.3,0.6,0.7,1.1,1.1,1.6c0.5,0.4,1,0.8,1.6,1c0.6,0.2,1.2,0.4,1.8,0.4
			c0.5,0,0.9-0.1,1.4-0.2c0.5-0.1,0.9-0.3,1.3-0.5c0.4-0.2,0.7-0.5,1-0.8c0.3-0.3,0.5-0.7,0.7-1.1l3,0.9c-0.6,1.3-1.5,2.3-2.9,3.1
			S54,27.6,52.3,27.6z M57.4,17.6c-0.1-0.7-0.2-1.4-0.5-2c-0.3-0.6-0.7-1.1-1.1-1.5c-0.4-0.4-1-0.7-1.6-1c-0.6-0.2-1.2-0.4-1.9-0.4
			c-0.7,0-1.3,0.1-1.9,0.4c-0.6,0.2-1.1,0.6-1.6,1c-0.4,0.4-0.8,0.9-1.1,1.5c-0.3,0.6-0.4,1.2-0.5,2H57.4z"/>
		<path fill="#FFFFFF" d="M84.1,9.9c-0.2-0.2-0.5-0.5-0.9-0.8s-0.9-0.5-1.4-0.8c-0.5-0.2-1.1-0.4-1.8-0.6s-1.4-0.2-2.1-0.2
			c-1.4,0-2.5,0.3-3.2,0.8c-0.7,0.6-1.1,1.3-1.1,2.3c0,0.6,0.1,1,0.4,1.4c0.2,0.4,0.6,0.7,1.1,0.9c0.5,0.3,1.1,0.5,1.8,0.7
			s1.5,0.4,2.5,0.7c1.1,0.3,2.1,0.6,3.1,0.9c0.9,0.3,1.7,0.7,2.4,1.2c0.7,0.5,1.2,1.1,1.5,1.8c0.4,0.7,0.5,1.6,0.5,2.6
			c0,1.2-0.2,2.2-0.7,3s-1.1,1.5-1.8,2c-0.8,0.5-1.6,0.9-2.6,1.2c-1,0.2-2.1,0.4-3.2,0.4c-1.7,0-3.4-0.3-5-0.8s-3.1-1.3-4.4-2.3
			l1.7-3.1c0.3,0.3,0.7,0.6,1.2,0.9c0.5,0.3,1.1,0.7,1.8,0.9s1.5,0.5,2.3,0.7c0.8,0.2,1.7,0.3,2.6,0.3c1.4,0,2.4-0.3,3.2-0.8
			c0.8-0.5,1.1-1.2,1.1-2.2c0-0.6-0.1-1.1-0.4-1.4c-0.3-0.4-0.7-0.7-1.2-1s-1.2-0.5-2-0.8c-0.8-0.2-1.6-0.5-2.6-0.7
			c-1.1-0.3-2.1-0.6-3-0.9c-0.8-0.3-1.5-0.7-2.1-1.2c-0.6-0.5-1-1-1.3-1.6s-0.4-1.4-0.4-2.3c0-1.1,0.2-2.1,0.6-3
			c0.4-0.9,1-1.6,1.7-2.2c0.7-0.6,1.6-1,2.6-1.3s2.1-0.4,3.2-0.4c1.6,0,3,0.2,4.3,0.7c1.3,0.5,2.4,1.1,3.4,1.8L84.1,9.9z"/>
		<path fill="#FFFFFF" d="M89,31.2c0.3,0.1,0.6,0.1,0.8,0.1c0.3,0,0.5,0,0.7,0c0.3,0,0.5,0,0.7-0.1c0.2-0.1,0.4-0.2,0.6-0.5
			c0.2-0.3,0.4-0.7,0.7-1.2s0.5-1.3,0.9-2.3l-6.8-16.7h3.6l5.2,13.6l4.6-13.6h3.3l-7.6,20.6c-0.4,1.2-1.1,2-1.9,2.6
			c-0.9,0.6-1.8,0.8-3,0.8c-0.6,0-1.2-0.1-1.8-0.3V31.2z"/>
		<path fill="#FFFFFF" d="M111.1,27.6c-0.7,0-1.4-0.1-2.1-0.2c-0.7-0.1-1.4-0.3-2-0.5s-1.3-0.4-1.9-0.7s-1.1-0.6-1.6-1l1.5-2.4
			c2,1.4,4.1,2.1,6.1,2.1c1.1,0,1.9-0.2,2.5-0.6c0.6-0.4,0.9-1,0.9-1.7c0-0.7-0.3-1.2-1-1.6s-1.8-0.7-3.3-1c-1-0.3-1.9-0.5-2.7-0.8
			c-0.7-0.3-1.4-0.6-1.8-0.9c-0.5-0.3-0.8-0.7-1-1.2c-0.2-0.5-0.3-1-0.3-1.6c0-0.9,0.2-1.6,0.5-2.3c0.3-0.7,0.8-1.2,1.4-1.7
			c0.6-0.5,1.3-0.8,2.1-1c0.8-0.2,1.7-0.4,2.6-0.4c1.2,0,2.4,0.2,3.5,0.6s2.1,0.9,3,1.6l-1.5,2.1c-1.6-1.2-3.3-1.8-5.1-1.8
			c-0.9,0-1.7,0.2-2.3,0.6c-0.6,0.4-0.9,1-0.9,1.8c0,0.3,0.1,0.6,0.2,0.9c0.1,0.2,0.3,0.4,0.6,0.6s0.7,0.3,1.1,0.5
			c0.5,0.1,1,0.3,1.7,0.5c1.2,0.3,2.1,0.6,3,0.8s1.5,0.6,2.1,1c0.5,0.4,0.9,0.8,1.2,1.3s0.4,1.1,0.4,1.8c0,0.8-0.2,1.5-0.5,2.1
			c-0.3,0.6-0.8,1.2-1.4,1.6s-1.3,0.8-2.1,1S112.1,27.6,111.1,27.6z"/>
		<path fill="#FFFFFF" d="M129.4,26.4c-0.5,0.2-1.1,0.5-1.9,0.7c-0.8,0.3-1.6,0.4-2.5,0.4c-0.6,0-1.1-0.1-1.6-0.2
			c-0.5-0.1-0.9-0.4-1.3-0.7s-0.7-0.7-0.9-1.2c-0.2-0.5-0.3-1.1-0.3-1.7V13.2h-2.2v-2.7h2.2V5h3.5v5.5h3.6v2.7h-3.6v9.3
			c0,0.6,0.2,1,0.5,1.3c0.3,0.3,0.8,0.4,1.2,0.4c0.5,0,1-0.1,1.4-0.3c0.4-0.2,0.8-0.3,1-0.4L129.4,26.4z"/>
		<path fill="#FFFFFF" d="M138.7,27.6c-1.3,0-2.5-0.2-3.6-0.7c-1.1-0.5-2-1.1-2.7-1.9c-0.8-0.8-1.3-1.7-1.8-2.8
			c-0.4-1-0.6-2.2-0.6-3.3c0-1.2,0.2-2.3,0.6-3.3s1-2,1.8-2.8c0.8-0.8,1.7-1.4,2.7-1.9c1.1-0.5,2.3-0.7,3.6-0.7
			c1.3,0,2.5,0.2,3.5,0.7c1.1,0.5,2,1.1,2.7,1.9c0.7,0.8,1.3,1.7,1.7,2.7c0.4,1,0.6,2.1,0.6,3.2c0,0.3,0,0.5,0,0.7
			c0,0.2,0,0.4-0.1,0.6h-13.4c0.1,0.7,0.2,1.4,0.5,2c0.3,0.6,0.7,1.1,1.1,1.6c0.5,0.4,1,0.8,1.6,1c0.6,0.2,1.2,0.4,1.8,0.4
			c0.5,0,0.9-0.1,1.4-0.2c0.5-0.1,0.9-0.3,1.3-0.5c0.4-0.2,0.7-0.5,1-0.8c0.3-0.3,0.5-0.7,0.7-1.1l3,0.9c-0.6,1.3-1.5,2.3-2.9,3.1
			S140.4,27.6,138.7,27.6z M143.8,17.6c-0.1-0.7-0.2-1.4-0.5-2c-0.3-0.6-0.7-1.1-1.1-1.5c-0.4-0.4-1-0.7-1.6-1
			c-0.6-0.2-1.2-0.4-1.9-0.4c-0.7,0-1.3,0.1-1.9,0.4c-0.6,0.2-1.1,0.6-1.6,1c-0.4,0.4-0.8,0.9-1.1,1.5c-0.3,0.6-0.4,1.2-0.5,2H143.8
			z"/>
		<path fill="#FFFFFF" d="M175,27.2h-3.5v-9.4c0-1.6-0.3-2.7-0.8-3.4c-0.5-0.7-1.3-1.1-2.2-1.1c-1,0-1.9,0.4-2.8,1.1
			c-0.8,0.7-1.4,1.7-1.8,2.9v9.9h-3.5v-9.4c0-1.6-0.3-2.7-0.8-3.4c-0.5-0.7-1.2-1.1-2.2-1.1c-1,0-1.9,0.4-2.7,1.1s-1.4,1.7-1.8,2.8
			v10h-3.5V10.5h3.2v3.4c0.7-1.2,1.5-2.1,2.6-2.7c1.1-0.6,2.3-0.9,3.7-0.9c1.4,0,2.5,0.4,3.3,1.1c0.8,0.7,1.3,1.6,1.5,2.7
			c0.7-1.2,1.6-2.2,2.7-2.8s2.3-1,3.6-1c1,0,1.8,0.2,2.4,0.6c0.7,0.4,1.2,0.9,1.6,1.5c0.4,0.6,0.7,1.3,0.8,2.2
			c0.2,0.8,0.2,1.7,0.2,2.6V27.2z"/>
		<path fill="#FFFFFF" d="M184.6,27.6c-0.7,0-1.4-0.1-2.1-0.2c-0.7-0.1-1.4-0.3-2-0.5s-1.3-0.4-1.9-0.7s-1.1-0.6-1.6-1l1.5-2.4
			c2,1.4,4.1,2.1,6.1,2.1c1.1,0,1.9-0.2,2.5-0.6c0.6-0.4,0.9-1,0.9-1.7c0-0.7-0.3-1.2-1-1.6s-1.8-0.7-3.3-1c-1-0.3-1.9-0.5-2.7-0.8
			c-0.7-0.3-1.4-0.6-1.8-0.9c-0.5-0.3-0.8-0.7-1-1.2c-0.2-0.5-0.3-1-0.3-1.6c0-0.9,0.2-1.6,0.5-2.3c0.3-0.7,0.8-1.2,1.4-1.7
			c0.6-0.5,1.3-0.8,2.1-1c0.8-0.2,1.7-0.4,2.6-0.4c1.2,0,2.4,0.2,3.5,0.6s2.1,0.9,3,1.6l-1.5,2.1c-1.6-1.2-3.3-1.8-5.1-1.8
			c-0.9,0-1.7,0.2-2.3,0.6c-0.6,0.4-0.9,1-0.9,1.8c0,0.3,0.1,0.6,0.2,0.9c0.1,0.2,0.3,0.4,0.6,0.6s0.7,0.3,1.1,0.5
			c0.5,0.1,1,0.3,1.7,0.5c1.2,0.3,2.1,0.6,3,0.8s1.5,0.6,2.1,1c0.5,0.4,0.9,0.8,1.2,1.3s0.4,1.1,0.4,1.8c0,0.8-0.2,1.5-0.5,2.1
			c-0.3,0.6-0.8,1.2-1.4,1.6s-1.3,0.8-2.1,1S185.6,27.6,184.6,27.6z"/>
	</g>
</g>
</svg>
