<?xml version="1.0" encoding="utf-8"?>
<!-- Generator: Adobe Illustrator 18.1.1, SVG Export Plug-In . SVG Version: 6.00 Build 0)  -->
<svg version="1.1" id="Layer_1" xmlns="http://www.w3.org/2000/svg" xmlns:xlink="http://www.w3.org/1999/xlink" x="0px" y="0px"
	 width="295.7px" height="67.9px" viewBox="0 0 295.7 67.9" enable-background="new 0 0 295.7 67.9" xml:space="preserve">
<g>
	<path fill="none" stroke="#3453A3" stroke-width="7" stroke-miterlimit="10" d="M257.1,14.8l18.1,18.1c0.7,0.7,0.7,1.7,0,2.4
		l-28.5,28.5c-0.7,0.7-1.7,0.7-2.4,0l-28.5-28.5c-0.7-0.7-0.7-1.7,0-2.4l28.5-28.5c0.7-0.7,1.7-0.7,2.4,0l3.8,3.8"/>
	<path fill="none" stroke="#27A056" stroke-width="7" stroke-miterlimit="10" d="M250.4,53.3l-18-18c-0.7-0.7-0.7-1.7,0-2.4
		l28.5-28.5c0.7-0.7,1.7-0.7,2.4,0l28.5,28.5c0.7,0.7,0.7,1.7,0,2.4l-28.5,28.5c-0.7,0.7-1.7,0.7-2.4,0l-3.7-3.7"/>
	<g>
		<path fill="#FFFFFF" d="M0.3,21.2v-3.9h3.5v3.9H0.3z M0.3,40.6V23.9h3.5v16.7H0.3z"/>
		<path fill="#FFFFFF" d="M25.1,21.1h-7.6v19.6H14V21.1H6.4v-3.2h18.7V21.1z"/>
		<path fill="#FFFFFF" d="M35.3,41c-1.3,0-2.5-0.2-3.6-0.7c-1.1-0.5-2-1.1-2.7-1.9c-0.8-0.8-1.3-1.7-1.8-2.8c-0.4-1-0.6-2.2-0.6-3.3
			c0-1.2,0.2-2.3,0.6-3.3s1-2,1.8-2.8c0.8-0.8,1.7-1.4,2.7-1.9c1.1-0.5,2.3-0.7,3.6-0.7c1.3,0,2.5,0.2,3.5,0.7
			c1.1,0.5,2,1.1,2.7,1.9c0.7,0.8,1.3,1.7,1.7,2.7c0.4,1,0.6,2.1,0.6,3.2c0,0.3,0,0.5,0,0.7c0,0.2,0,0.4-0.1,0.6H30.4
			c0.1,0.7,0.2,1.4,0.5,2c0.3,0.6,0.7,1.1,1.1,1.6c0.5,0.4,1,0.8,1.6,1c0.6,0.2,1.2,0.4,1.8,0.4c0.5,0,0.9-0.1,1.4-0.2
			c0.5-0.1,0.9-0.3,1.3-0.5c0.4-0.2,0.7-0.5,1-0.8c0.3-0.3,0.5-0.7,0.7-1.1l3,0.9c-0.6,1.3-1.5,2.3-2.9,3.1S37.1,41,35.3,41z
			 M40.4,31c-0.1-0.7-0.2-1.4-0.5-2c-0.3-0.6-0.7-1.1-1.1-1.5c-0.4-0.4-1-0.7-1.6-1c-0.6-0.2-1.2-0.4-1.9-0.4
			c-0.7,0-1.3,0.1-1.9,0.4c-0.6,0.2-1.1,0.6-1.6,1c-0.4,0.4-0.8,0.9-1.1,1.5c-0.3,0.6-0.4,1.2-0.5,2H40.4z"/>
		<path fill="#FFFFFF" d="M54.4,41c-1.3,0-2.5-0.2-3.6-0.7c-1.1-0.5-2-1.1-2.7-1.9c-0.8-0.8-1.3-1.7-1.8-2.8c-0.4-1-0.6-2.2-0.6-3.3
			c0-1.2,0.2-2.3,0.6-3.3s1-2,1.8-2.8c0.8-0.8,1.7-1.4,2.7-1.9c1.1-0.5,2.3-0.7,3.6-0.7c1.3,0,2.5,0.2,3.5,0.7
			c1.1,0.5,2,1.1,2.7,1.9c0.7,0.8,1.3,1.7,1.7,2.7c0.4,1,0.6,2.1,0.6,3.2c0,0.3,0,0.5,0,0.7c0,0.2,0,0.4-0.1,0.6H49.5
			c0.1,0.7,0.2,1.4,0.5,2c0.3,0.6,0.7,1.1,1.1,1.6c0.5,0.4,1,0.8,1.6,1c0.6,0.2,1.2,0.4,1.8,0.4c0.5,0,0.9-0.1,1.4-0.2
			c0.5-0.1,0.9-0.3,1.3-0.5c0.4-0.2,0.7-0.5,1-0.8c0.3-0.3,0.5-0.7,0.7-1.1l3,0.9c-0.6,1.3-1.5,2.3-2.9,3.1S56.2,41,54.4,41z
			 M59.5,31c-0.1-0.7-0.2-1.4-0.5-2c-0.3-0.6-0.7-1.1-1.1-1.5c-0.4-0.4-1-0.7-1.6-1c-0.6-0.2-1.2-0.4-1.9-0.4
			c-0.7,0-1.3,0.1-1.9,0.4c-0.6,0.2-1.1,0.6-1.6,1c-0.4,0.4-0.8,0.9-1.1,1.5c-0.3,0.6-0.4,1.2-0.5,2H59.5z"/>
		<path fill="#FFFFFF" d="M87.6,23.3c-0.2-0.2-0.5-0.5-0.9-0.8s-0.9-0.5-1.4-0.8c-0.5-0.2-1.1-0.4-1.8-0.6S82.1,21,81.3,21
			c-1.4,0-2.5,0.3-3.2,0.8c-0.7,0.6-1.1,1.3-1.1,2.3c0,0.6,0.1,1,0.4,1.4c0.2,0.4,0.6,0.7,1.1,0.9c0.5,0.3,1.1,0.5,1.8,0.7
			s1.5,0.4,2.5,0.7c1.1,0.3,2.1,0.6,3.1,0.9c0.9,0.3,1.7,0.7,2.4,1.2c0.7,0.5,1.2,1.1,1.5,1.8c0.4,0.7,0.5,1.6,0.5,2.6
			c0,1.2-0.2,2.2-0.7,3s-1.1,1.5-1.8,2c-0.8,0.5-1.6,0.9-2.6,1.2c-1,0.2-2.1,0.4-3.2,0.4c-1.7,0-3.4-0.3-5-0.8s-3.1-1.3-4.4-2.3
			l1.7-3.1c0.3,0.3,0.7,0.6,1.2,0.9c0.5,0.3,1.1,0.7,1.8,0.9s1.5,0.5,2.3,0.7c0.8,0.2,1.7,0.3,2.6,0.3c1.4,0,2.4-0.3,3.2-0.8
			c0.8-0.5,1.1-1.2,1.1-2.2c0-0.6-0.1-1.1-0.4-1.4c-0.3-0.4-0.7-0.7-1.2-1c-0.5-0.3-1.2-0.5-2-0.8c-0.8-0.2-1.6-0.5-2.6-0.7
			c-1.1-0.3-2.1-0.6-3-0.9c-0.8-0.3-1.5-0.7-2.1-1.2c-0.6-0.5-1-1-1.3-1.6s-0.4-1.4-0.4-2.3c0-1.1,0.2-2.1,0.6-3
			c0.4-0.9,1-1.6,1.7-2.2c0.7-0.6,1.6-1,2.6-1.3s2.1-0.4,3.2-0.4c1.6,0,3,0.2,4.3,0.7c1.3,0.5,2.4,1.1,3.4,1.8L87.6,23.3z"/>
		<path fill="#FFFFFF" d="M93.1,44.6c0.3,0.1,0.6,0.1,0.8,0.1c0.3,0,0.5,0,0.7,0c0.3,0,0.5,0,0.7-0.1c0.2-0.1,0.4-0.2,0.6-0.5
			c0.2-0.3,0.4-0.7,0.7-1.2s0.5-1.3,0.9-2.3l-6.8-16.7h3.6l5.2,13.6l4.6-13.6h3.3l-7.6,20.6c-0.4,1.2-1.1,2-1.9,2.6
			c-0.9,0.6-1.8,0.8-3,0.8c-0.6,0-1.2-0.1-1.8-0.3V44.6z"/>
		<path fill="#FFFFFF" d="M115.9,41c-0.7,0-1.4-0.1-2.1-0.2c-0.7-0.1-1.4-0.3-2-0.5s-1.3-0.4-1.9-0.7s-1.1-0.6-1.6-1l1.5-2.4
			c2,1.4,4.1,2.1,6.1,2.1c1.1,0,1.9-0.2,2.5-0.6c0.6-0.4,0.9-1,0.9-1.7c0-0.7-0.3-1.2-1-1.6s-1.8-0.7-3.3-1c-1-0.3-1.9-0.5-2.7-0.8
			c-0.7-0.3-1.4-0.6-1.8-0.9c-0.5-0.3-0.8-0.7-1-1.2c-0.2-0.5-0.3-1-0.3-1.6c0-0.9,0.2-1.6,0.5-2.3c0.3-0.7,0.8-1.2,1.4-1.7
			c0.6-0.5,1.3-0.8,2.1-1c0.8-0.2,1.7-0.4,2.6-0.4c1.2,0,2.4,0.2,3.5,0.6s2.1,0.9,3,1.6l-1.5,2.1c-1.6-1.2-3.3-1.8-5.1-1.8
			c-0.9,0-1.7,0.2-2.3,0.6c-0.6,0.4-0.9,1-0.9,1.8c0,0.3,0.1,0.6,0.2,0.9c0.1,0.2,0.3,0.4,0.6,0.6s0.7,0.3,1.1,0.5
			c0.5,0.1,1,0.3,1.7,0.5c1.2,0.3,2.1,0.6,3,0.8s1.5,0.6,2.1,1c0.5,0.4,0.9,0.8,1.2,1.3s0.4,1.1,0.4,1.8c0,0.8-0.2,1.5-0.5,2.1
			c-0.3,0.6-0.8,1.2-1.4,1.6s-1.3,0.8-2.1,1S116.9,41,115.9,41z"/>
		<path fill="#FFFFFF" d="M134.9,39.8c-0.5,0.2-1.1,0.5-1.9,0.7c-0.8,0.3-1.6,0.4-2.5,0.4c-0.6,0-1.1-0.1-1.6-0.2
			c-0.5-0.1-0.9-0.4-1.3-0.7c-0.4-0.3-0.7-0.7-0.9-1.2c-0.2-0.5-0.3-1.1-0.3-1.7V26.6h-2.2v-2.7h2.2v-5.5h3.5v5.5h3.6v2.7H130V36
			c0,0.6,0.2,1,0.5,1.3c0.3,0.3,0.8,0.4,1.2,0.4c0.5,0,1-0.1,1.4-0.3c0.4-0.2,0.8-0.3,1-0.4L134.9,39.8z"/>
		<path fill="#FFFFFF" d="M144.8,41c-1.3,0-2.5-0.2-3.6-0.7c-1.1-0.5-2-1.1-2.7-1.9c-0.8-0.8-1.3-1.7-1.8-2.8
			c-0.4-1-0.6-2.2-0.6-3.3c0-1.2,0.2-2.3,0.6-3.3s1-2,1.8-2.8c0.8-0.8,1.7-1.4,2.7-1.9c1.1-0.5,2.3-0.7,3.6-0.7
			c1.3,0,2.5,0.2,3.5,0.7c1.1,0.5,2,1.1,2.7,1.9c0.7,0.8,1.3,1.7,1.7,2.7c0.4,1,0.6,2.1,0.6,3.2c0,0.3,0,0.5,0,0.7
			c0,0.2,0,0.4-0.1,0.6h-13.4c0.1,0.7,0.2,1.4,0.5,2c0.3,0.6,0.7,1.1,1.1,1.6c0.5,0.4,1,0.8,1.6,1c0.6,0.2,1.2,0.4,1.8,0.4
			c0.5,0,0.9-0.1,1.4-0.2c0.5-0.1,0.9-0.3,1.3-0.5c0.4-0.2,0.7-0.5,1-0.8c0.3-0.3,0.5-0.7,0.7-1.1l3,0.9c-0.6,1.3-1.5,2.3-2.9,3.1
			S146.6,41,144.8,41z M149.9,31c-0.1-0.7-0.2-1.4-0.5-2c-0.3-0.6-0.7-1.1-1.1-1.5c-0.4-0.4-1-0.7-1.6-1c-0.6-0.2-1.2-0.4-1.9-0.4
			c-0.7,0-1.3,0.1-1.9,0.4c-0.6,0.2-1.1,0.6-1.6,1c-0.4,0.4-0.8,0.9-1.1,1.5c-0.3,0.6-0.4,1.2-0.5,2H149.9z"/>
		<path fill="#FFFFFF" d="M181.8,40.6h-3.5v-9.4c0-1.6-0.3-2.7-0.8-3.4c-0.5-0.7-1.3-1.1-2.2-1.1c-1,0-1.9,0.4-2.8,1.1
			c-0.8,0.7-1.4,1.7-1.8,2.9v9.9h-3.5v-9.4c0-1.6-0.3-2.7-0.8-3.4c-0.5-0.7-1.2-1.1-2.2-1.1c-1,0-1.9,0.4-2.7,1.1s-1.4,1.7-1.8,2.8
			v10h-3.5V23.9h3.2v3.4c0.7-1.2,1.5-2.1,2.6-2.7c1.1-0.6,2.3-0.9,3.7-0.9c1.4,0,2.5,0.4,3.3,1.1c0.8,0.7,1.3,1.6,1.5,2.7
			c0.7-1.2,1.6-2.2,2.7-2.8s2.3-1,3.6-1c1,0,1.8,0.2,2.4,0.6c0.7,0.4,1.2,0.9,1.6,1.5c0.4,0.6,0.7,1.3,0.8,2.2
			c0.2,0.8,0.2,1.7,0.2,2.6V40.6z"/>
		<path fill="#FFFFFF" d="M192,41c-0.7,0-1.4-0.1-2.1-0.2c-0.7-0.1-1.4-0.3-2-0.5s-1.3-0.4-1.9-0.7s-1.1-0.6-1.6-1l1.5-2.4
			c2,1.4,4.1,2.1,6.1,2.1c1.1,0,1.9-0.2,2.5-0.6c0.6-0.4,0.9-1,0.9-1.7c0-0.7-0.3-1.2-1-1.6s-1.8-0.7-3.3-1c-1-0.3-1.9-0.5-2.7-0.8
			c-0.7-0.3-1.4-0.6-1.8-0.9c-0.5-0.3-0.8-0.7-1-1.2c-0.2-0.5-0.3-1-0.3-1.6c0-0.9,0.2-1.6,0.5-2.3c0.3-0.7,0.8-1.2,1.4-1.7
			c0.6-0.5,1.3-0.8,2.1-1c0.8-0.2,1.7-0.4,2.6-0.4c1.2,0,2.4,0.2,3.5,0.6s2.1,0.9,3,1.6l-1.5,2.1c-1.6-1.2-3.3-1.8-5.1-1.8
			c-0.9,0-1.7,0.2-2.3,0.6c-0.6,0.4-0.9,1-0.9,1.8c0,0.3,0.1,0.6,0.2,0.9c0.1,0.2,0.3,0.4,0.6,0.6s0.7,0.3,1.1,0.5
			c0.5,0.1,1,0.3,1.7,0.5c1.2,0.3,2.1,0.6,3,0.8s1.5,0.6,2.1,1c0.5,0.4,0.9,0.8,1.2,1.3s0.4,1.1,0.4,1.8c0,0.8-0.2,1.5-0.5,2.1
			c-0.3,0.6-0.8,1.2-1.4,1.6s-1.3,0.8-2.1,1S193.1,41,192,41z"/>
	</g>
</g>
</svg>
